# xmcd
#
# Track frame offsets:
#	150
#	11026
#	24135
#	38513
#	47265
#	55572
#	64527
#	75412
#	87308
#	96168
#	107697
#	126342
#	136799
#	151115
#	162020
#	174377
#	180459
#	182610
#
# Disc length: 2471 seconds
#
# Revision: 0
# Processed by: cddbd v1.5.2PL0 Copyright (c) Steve Scherf et al.
# Submitted via: EasyCDDAExtractor 12.0.4.1
#
DISCID=c109a512
DTITLE=Obarsia - Colindam, Colindam
DYEAR=2010
DGENRE=Christamas Songs
TTITLE0=Fa gazda lumina-n casa
TTITLE1=La tat omu de Craciun
TTITLE2=Maica Sfanta s-o pornit
TTITLE3=Bucura-te acest Domn bun
TTITLE4=Sus la vita vinului
TTITLE5=Trei crai de la rasarit
TTITLE6=La nunta din Cana Galilei
TTITLE7=Pe deasupra cerului
TTITLE8=Preumbla-se Maria
TTITLE9=Atunci cand ocoborat
TTITLE10=Ferice Doamne, ferice
TTITLE11=Colo sus in vremea ceea
TTITLE12=Asta-i sara, sara mare
TTITLE13=Ce-ai vazut pastori
TTITLE14=Veniti prunci cu totii
TTITLE15=Noi acum feciorilor
TTITLE16=Urare Colindamu, Colindam
TTITLE17=Urare Obarsia
EXTD=
EXTT0=
EXTT1=
EXTT2=
EXTT3=
EXTT4=
EXTT5=
EXTT6=
EXTT7=
EXTT8=
EXTT9=
EXTT10=
EXTT11=
EXTT12=
EXTT13=
EXTT14=
EXTT15=
EXTT16=
EXTT17=
PLAYORDER=
